# 3ds Max Wavefront OBJ Exporter v0.97b - (c)2007 guruware
# File Created: 05.07.2013 17:33:29

mtllib HexTile.mtl

#
# object Hex
#

v  0.0000 -10.0000 -0.0000
v  -0.8660 -10.0000 -0.5000
v  0.0000 -10.0000 -1.0000
v  0.8660 -10.0000 -0.5000
v  -0.0000 -10.0000 1.0000
v  -0.8660 -10.0000 0.5000
v  0.8660 -10.0000 0.5000
v  0.0000 -0.1000 -1.0000
v  0.8660 -0.1000 -0.5000
v  -0.8660 -0.1000 -0.5000
v  -0.8660 -0.1000 0.5000
v  -0.0000 -0.1000 1.0000
v  0.8660 -0.1000 0.5000
v  0.0000 0.0000 -0.0000
v  0.7660 0.0000 0.4422
v  0.7660 0.0000 -0.4423
v  0.0000 0.0000 -0.8845
v  -0.7660 0.0000 -0.4422
v  -0.7660 0.0000 0.4423
v  -0.0000 0.0000 0.8845
# 20 vertices

vn 0.0000 -1.0000 -0.0000
vn 0.0000 0.0000 -1.0000
vn 0.8660 0.0000 -0.5000
vn -0.8660 0.0000 -0.5000
vn -0.8660 0.0000 0.5000
vn -0.0000 0.0000 1.0000
vn 0.8660 0.0000 0.5000
vn 0.0000 1.0000 -0.0000
vn 0.3536 0.7071 -0.6124
vn -0.3535 0.7071 -0.6124
vn -0.7072 0.7071 -0.0000
vn -0.3536 0.7071 0.6124
vn 0.3535 0.7071 0.6124
vn 0.7072 0.7071 0.0000
# 14 vertex normals

vt 0.5000 0.0000 0.0000
vt 0.6667 0.0000 0.0000
vt 0.9167 0.0000 1.0000
vt 0.7500 0.0000 1.0000
vt 0.4167 0.0000 1.0000
vt 0.2500 0.0000 1.0000
vt 0.0833 0.0000 1.0000
vt 0.5833 0.0000 1.0000
vt 0.9167 1.0000 1.0000
vt 0.7500 1.0000 1.0000
vt 0.2500 1.0000 0.0000
vt 0.7500 1.0000 0.0000
vt 0.0000 0.5000 0.0000
vt 0.2500 0.0000 0.0000
vt 0.5833 1.0000 1.0000
vt 0.4167 1.0000 1.0000
vt 0.5000 0.5000 0.0000
vt 0.7211 0.0577 0.0000
vt 0.9423 0.5000 0.0000
vt 0.7211 0.9423 0.0000
vt 0.2789 0.9423 0.0000
vt 0.0577 0.5000 0.0000
vt 0.2789 0.0577 0.0000
vt 1.0000 0.5000 0.0000
vt 0.7500 0.0000 0.0000
vt 0.2500 -0.0000 0.0000
vt -0.0833 1.0000 1.0000
# 27 texture coords

g Hex
usemtl wire_087225143
s 1
f 1/1/1 2/2/1 3/3/1 4/4/1 
f 1/1/1 5/5/1 6/6/1 2/7/1 
f 1/1/1 4/4/1 7/8/1 5/5/1 
s 8
f 8/9/2 9/10/3 4/4/3 3/3/2 
f 10/11/4 8/12/2 3/12/2 2/11/4 
f 11/13/5 10/11/4 2/11/4 6/13/5 
f 12/14/6 11/13/5 6/13/5 5/14/6 
f 13/15/7 12/16/6 5/5/6 7/8/7 
f 9/10/3 13/15/7 7/8/7 4/4/3 
s 1
f 14/17/8 15/18/8 16/19/8 17/20/8 
f 14/17/8 17/20/8 18/21/8 19/22/8 
f 14/17/8 19/22/8 20/23/8 15/18/8 
s off
f 17/20/9 16/19/9 9/24/9 8/12/9 
f 18/21/10 17/20/10 8/12/10 10/11/10 
f 19/22/11 18/21/11 10/11/11 11/13/11 
f 20/23/12 19/22/12 11/13/12 12/14/12 
f 15/25/13 20/26/13 12/27/13 13/27/13 
f 16/24/14 15/25/14 13/27/14 9/15/14 
# 18 polygons

